<svg version="1.2" xmlns="http://www.w3.org/2000/svg" viewBox="0 0 427 504" width="427" height="504">
	<title>SS</title>
	<style>
		.s0 { fill: none;stroke: #8b8b8b;stroke-width: 2 } 
		.s1 { fill: #181818 } 
	</style>
	<g id="Layer">
		<path id="Layer" fill-rule="evenodd" class="s0" d="m10.3 263c39.1 18.8 78.7 36.6 118.2 54.9 47.7 22.1 96 43.4 144 65.1q0.1 0.1 0.2 0 0.1 0 0.2 0 0.1-0.1 0.1-0.1 0.1-0.1 0.1-0.2l-0.3-64q0-0.1 0-0.2 0 0-0.1-0.1 0-0.1-0.1-0.1 0-0.1-0.1-0.1c-11.9-6.1-26.7-12.6-36.2-17q-62.7-29.1-125.3-58.6-4-1.9-8.1-3.9c-17.6-8.7-29.2-22.6-32.8-41.8q-1.1-5.9-1.2-19.9-0.2-25.2-0.4-50.3 0-9.8 0.8-16.5c2.5-18.6 13.6-33.4 31.4-39.5 6.1-2.1 13.2-2.4 19.8-2.4q90.9-0.2 181.7-0.4 11.4-0.1 16.5 1.1c16.6 3.7 30.4 16.4 34.8 32.7q1.7 6.1 1.8 19.8 0.1 11.4 0 22.7 0 0.1 0.1 0.3 0 0.1 0.1 0.2 0.1 0.1 0.2 0.1 0.2 0.1 0.3 0.1l59.1-0.2q0.4 0 0.4-0.5 0.1-16.2-0.1-32.4-0.1-13.3-1.1-20c-7.1-44.7-46.7-80.1-91.4-83.6q-4.2-0.4-20-0.3-96.3 0.1-192.5 0.5c-49.6 0.2-93.3 36.3-100.3 85.7q-0.9 6.6-0.9 20 0.2 74 0.4 147.9 0 0.2 0.1 0.3 0 0.2 0.1 0.3 0.1 0.1 0.2 0.2 0.1 0.1 0.3 0.2z"/>
		<path id="Layer" fill-rule="evenodd" class="s0" d="m151.8 192.8c54.9 24.9 109.8 49.9 164.5 75 18.9 8.7 33.2 21.3 38.1 42q1.5 5.9 1.6 16.5 0.4 47.6 0 62c-0.8 24.7-18.8 47.7-44.5 49q-10.1 0.5-25.4 0.5-82.1-0.1-164.1 0.3c-10.8 0-18.3-0.8-26.7-5.8q-19.2-11.4-24.2-32.3c-2.4-10.3-1.7-24.9-1.9-36.9q0-0.6-0.6-0.6l-58.3 0.4q-0.4 0-0.5 0.5-0.1 14.7 0.2 29.6 0.2 12.5 1.5 20c6.6 36.4 34.7 69.4 70.5 80.5 6.6 2.1 13.5 3.9 20 4.4q6 0.4 19 0.4 94.2 0 188.4-0.5 12.1-0.1 19.5-1.4c14.7-2.7 29.9-8.1 42.1-16.7 22.7-15.8 40.2-43.3 44.2-70.9q1-6.5 0.9-19.9-0.1-69.2-0.3-138.5 0-0.4-0.1-0.7-0.1-0.3-0.3-0.6-0.2-0.2-0.4-0.5-0.3-0.2-0.6-0.3c-78.7-37.6-157.9-74.1-236.9-111.1q-12.2-5.7-25.1-11.5-1.2-0.5-1.2 0.8v65.3q0 0.2 0 0.3 0.1 0.2 0.2 0.3 0.1 0.1 0.2 0.2 0.1 0.1 0.2 0.2z"/>
	</g>
	<path id="Layer" class="s1" d="m128.5 317.9c-39.5-18.3-79.1-36.1-118.2-54.9q-0.2-0.1-0.3-0.2-0.1-0.1-0.2-0.2-0.1-0.1-0.1-0.3-0.1-0.1-0.1-0.3-0.2-73.9-0.4-147.9 0-13.4 0.9-20c7-49.4 50.7-85.5 100.3-85.7q96.2-0.4 192.5-0.5 15.8-0.1 20 0.3c44.7 3.5 84.3 38.9 91.4 83.6q1 6.7 1.1 20 0.2 16.2 0.1 32.4 0 0.5-0.4 0.5l-59.1 0.2q-0.1 0-0.3-0.1-0.1 0-0.2-0.1-0.1-0.1-0.1-0.2-0.1-0.2-0.1-0.3 0.1-11.3 0-22.7-0.1-13.7-1.8-19.8c-4.4-16.3-18.2-29-34.8-32.7q-5.1-1.2-16.5-1.1-90.8 0.2-181.7 0.4c-6.6 0-13.7 0.3-19.8 2.4-17.8 6.1-28.9 20.9-31.4 39.5q-0.8 6.7-0.8 16.5 0.2 25.1 0.4 50.3 0.1 14 1.2 19.9c3.6 19.2 15.2 33.1 32.8 41.8q4.1 2 8.1 3.9 62.6 29.5 125.3 58.6c9.5 4.4 24.3 10.9 36.2 17q0.1 0 0.1 0.1 0.1 0 0.1 0.1 0.1 0.1 0.1 0.1 0 0.1 0 0.2l0.3 64q0 0.1-0.1 0.2 0 0-0.1 0.1-0.1 0-0.2 0-0.1 0.1-0.2 0c-48-21.7-96.3-43-144-65.1z"/>
	<path id="Layer" class="s1" d="m316.3 267.8c-54.7-25.1-109.6-50.1-164.5-75q-0.1-0.1-0.2-0.2-0.1-0.1-0.2-0.2-0.1-0.1-0.2-0.3 0-0.1 0-0.3v-65.3q0-1.3 1.2-0.8 12.9 5.8 25.1 11.5c79 37 158.2 73.5 236.9 111.1q0.3 0.1 0.6 0.3 0.2 0.3 0.4 0.5 0.2 0.3 0.3 0.6 0.1 0.3 0.1 0.7 0.2 69.3 0.3 138.5 0.1 13.4-0.9 19.9c-4 27.6-21.5 55.1-44.2 70.9-12.2 8.6-27.4 14-42.1 16.7q-7.4 1.3-19.5 1.4-94.2 0.5-188.4 0.5-13 0-19-0.4c-6.5-0.5-13.4-2.3-20-4.4-35.8-11.1-63.9-44.1-70.5-80.5q-1.3-7.5-1.5-20-0.3-14.9-0.2-29.6 0.1-0.5 0.5-0.5l58.3-0.4q0.6 0 0.6 0.6c0.2 12-0.5 26.6 1.9 36.9q5 20.9 24.2 32.3c8.4 5 15.9 5.8 26.7 5.8q82-0.4 164.1-0.3 15.3 0 25.4-0.5c25.7-1.3 43.7-24.3 44.5-49q0.4-14.4 0-62-0.1-10.6-1.6-16.5c-4.9-20.7-19.2-33.3-38.1-42z"/>
</svg>